<?xml version="1.0" encoding="utf-8"?>
<!-- Generator: Adobe Illustrator 16.0.0, SVG Export Plug-In . SVG Version: 6.00 Build 0)  -->
<!DOCTYPE svg PUBLIC "-//W3C//DTD SVG 1.1 Tiny//EN" "http://www.w3.org/Graphics/SVG/1.1/DTD/svg11-tiny.dtd">
<svg version="1.1" baseProfile="tiny" id="Layer_1" xmlns="http://www.w3.org/2000/svg" xmlns:xlink="http://www.w3.org/1999/xlink"
	 x="0px" y="0px" width="24px" height="24px" viewBox="0 0 24 24" xml:space="preserve">
<g>
	<path d="M23,0.583h-4c-0.221,0-0.4,0.179-0.4,0.4s0.18,0.4,0.4,0.4h3.6v3.559c0,0.221,0.18,0.4,0.4,0.4s0.4-0.179,0.4-0.4V0.983
		C23.4,0.763,23.221,0.583,23,0.583z"/>
	<path d="M5,22.617H1.4v-3.559c0-0.221-0.18-0.4-0.4-0.4s-0.4,0.179-0.4,0.4v3.959c0,0.221,0.18,0.4,0.4,0.4h4
		c0.221,0,0.4-0.179,0.4-0.4S5.221,22.617,5,22.617z"/>
	<path d="M2.6,2.983v18c0,0.221,0.18,0.4,0.4,0.4h18c0.221,0,0.4-0.179,0.4-0.4v-18c0-0.221-0.18-0.4-0.4-0.4H3
		C2.779,2.583,2.6,2.763,2.6,2.983z M3.4,3.383H20.6v17.2H3.4V3.383z"/>
	<path d="M1,5.342c0.221,0,0.4-0.179,0.4-0.4V1.383H5c0.221,0,0.4-0.179,0.4-0.4s-0.18-0.4-0.4-0.4H1c-0.221,0-0.4,0.179-0.4,0.4
		v3.958C0.6,5.163,0.779,5.342,1,5.342z"/>
	<path d="M23,18.658c-0.221,0-0.4,0.179-0.4,0.4v3.559H19c-0.221,0-0.4,0.179-0.4,0.4s0.18,0.4,0.4,0.4h4c0.221,0,0.4-0.179,0.4-0.4
		v-3.959C23.4,18.837,23.221,18.658,23,18.658z"/>
</g>
</svg>
